<mxfile host="app.diagrams.net" agent="Mozilla/5.0 (Windows NT 10.0; Win64; x64) AppleWebKit/537.36 (KHTML, like Gecko) Chrome/131.0.0.0 Safari/537.36" version="24.8.9">
  <diagram name="Страница — 1" id="GEzqEGKOMUnp4E8dggOt">
    <mxGraphModel dx="1895" dy="1223" grid="0" gridSize="10" guides="1" tooltips="1" connect="1" arrows="1" fold="1" page="0" pageScale="1" pageWidth="827" pageHeight="1169" math="0" shadow="0">
      <root>
        <mxCell id="0" />
        <mxCell id="1" parent="0" />
        <mxCell id="X9ARLeDF2SEMC0kTfXHe-2" value="basket" style="swimlane;fontStyle=0;childLayout=stackLayout;horizontal=1;startSize=26;horizontalStack=0;resizeParent=1;resizeParentMax=0;resizeLast=0;collapsible=1;marginBottom=0;align=center;fontSize=14;" vertex="1" parent="1">
          <mxGeometry x="-453" y="67" width="160" height="86" as="geometry" />
        </mxCell>
        <mxCell id="X9ARLeDF2SEMC0kTfXHe-3" value="id" style="text;strokeColor=none;fillColor=none;spacingLeft=4;spacingRight=4;overflow=hidden;rotatable=0;points=[[0,0.5],[1,0.5]];portConstraint=eastwest;fontSize=12;whiteSpace=wrap;html=1;" vertex="1" parent="X9ARLeDF2SEMC0kTfXHe-2">
          <mxGeometry y="26" width="160" height="30" as="geometry" />
        </mxCell>
        <mxCell id="X9ARLeDF2SEMC0kTfXHe-4" value="user_id" style="text;strokeColor=none;fillColor=none;spacingLeft=4;spacingRight=4;overflow=hidden;rotatable=0;points=[[0,0.5],[1,0.5]];portConstraint=eastwest;fontSize=12;whiteSpace=wrap;html=1;" vertex="1" parent="X9ARLeDF2SEMC0kTfXHe-2">
          <mxGeometry y="56" width="160" height="30" as="geometry" />
        </mxCell>
        <mxCell id="X9ARLeDF2SEMC0kTfXHe-13" value="user" style="swimlane;fontStyle=0;childLayout=stackLayout;horizontal=1;startSize=26;horizontalStack=0;resizeParent=1;resizeParentMax=0;resizeLast=0;collapsible=1;marginBottom=0;align=center;fontSize=14;" vertex="1" parent="1">
          <mxGeometry x="-672" y="67" width="160" height="146" as="geometry" />
        </mxCell>
        <mxCell id="X9ARLeDF2SEMC0kTfXHe-14" value="id" style="text;strokeColor=none;fillColor=none;spacingLeft=4;spacingRight=4;overflow=hidden;rotatable=0;points=[[0,0.5],[1,0.5]];portConstraint=eastwest;fontSize=12;whiteSpace=wrap;html=1;" vertex="1" parent="X9ARLeDF2SEMC0kTfXHe-13">
          <mxGeometry y="26" width="160" height="30" as="geometry" />
        </mxCell>
        <mxCell id="X9ARLeDF2SEMC0kTfXHe-15" value="email" style="text;strokeColor=none;fillColor=none;spacingLeft=4;spacingRight=4;overflow=hidden;rotatable=0;points=[[0,0.5],[1,0.5]];portConstraint=eastwest;fontSize=12;whiteSpace=wrap;html=1;" vertex="1" parent="X9ARLeDF2SEMC0kTfXHe-13">
          <mxGeometry y="56" width="160" height="30" as="geometry" />
        </mxCell>
        <mxCell id="X9ARLeDF2SEMC0kTfXHe-16" value="password" style="text;strokeColor=none;fillColor=none;spacingLeft=4;spacingRight=4;overflow=hidden;rotatable=0;points=[[0,0.5],[1,0.5]];portConstraint=eastwest;fontSize=12;whiteSpace=wrap;html=1;" vertex="1" parent="X9ARLeDF2SEMC0kTfXHe-13">
          <mxGeometry y="86" width="160" height="30" as="geometry" />
        </mxCell>
        <mxCell id="X9ARLeDF2SEMC0kTfXHe-17" value="role STRING" style="text;strokeColor=none;fillColor=none;spacingLeft=4;spacingRight=4;overflow=hidden;rotatable=0;points=[[0,0.5],[1,0.5]];portConstraint=eastwest;fontSize=12;whiteSpace=wrap;html=1;" vertex="1" parent="X9ARLeDF2SEMC0kTfXHe-13">
          <mxGeometry y="116" width="160" height="30" as="geometry" />
        </mxCell>
        <mxCell id="X9ARLeDF2SEMC0kTfXHe-18" value="" style="edgeStyle=entityRelationEdgeStyle;fontSize=12;html=1;endArrow=ERmandOne;startArrow=ERmandOne;rounded=0;startSize=8;endSize=8;curved=1;exitX=1;exitY=0.5;exitDx=0;exitDy=0;entryX=0;entryY=0.5;entryDx=0;entryDy=0;" edge="1" parent="1" source="X9ARLeDF2SEMC0kTfXHe-14" target="X9ARLeDF2SEMC0kTfXHe-3">
          <mxGeometry width="100" height="100" relative="1" as="geometry">
            <mxPoint x="-506" y="250" as="sourcePoint" />
            <mxPoint x="-406" y="150" as="targetPoint" />
          </mxGeometry>
        </mxCell>
        <mxCell id="X9ARLeDF2SEMC0kTfXHe-19" value="device    " style="swimlane;fontStyle=0;childLayout=stackLayout;horizontal=1;startSize=26;horizontalStack=0;resizeParent=1;resizeParentMax=0;resizeLast=0;collapsible=1;marginBottom=0;align=center;fontSize=14;" vertex="1" parent="1">
          <mxGeometry x="216" y="78" width="160" height="236" as="geometry" />
        </mxCell>
        <mxCell id="X9ARLeDF2SEMC0kTfXHe-20" value="id" style="text;strokeColor=none;fillColor=none;spacingLeft=4;spacingRight=4;overflow=hidden;rotatable=0;points=[[0,0.5],[1,0.5]];portConstraint=eastwest;fontSize=12;whiteSpace=wrap;html=1;" vertex="1" parent="X9ARLeDF2SEMC0kTfXHe-19">
          <mxGeometry y="26" width="160" height="30" as="geometry" />
        </mxCell>
        <mxCell id="X9ARLeDF2SEMC0kTfXHe-21" value="name" style="text;strokeColor=none;fillColor=none;spacingLeft=4;spacingRight=4;overflow=hidden;rotatable=0;points=[[0,0.5],[1,0.5]];portConstraint=eastwest;fontSize=12;whiteSpace=wrap;html=1;" vertex="1" parent="X9ARLeDF2SEMC0kTfXHe-19">
          <mxGeometry y="56" width="160" height="30" as="geometry" />
        </mxCell>
        <mxCell id="X9ARLeDF2SEMC0kTfXHe-24" value="price" style="text;strokeColor=none;fillColor=none;spacingLeft=4;spacingRight=4;overflow=hidden;rotatable=0;points=[[0,0.5],[1,0.5]];portConstraint=eastwest;fontSize=12;whiteSpace=wrap;html=1;" vertex="1" parent="X9ARLeDF2SEMC0kTfXHe-19">
          <mxGeometry y="86" width="160" height="30" as="geometry" />
        </mxCell>
        <mxCell id="X9ARLeDF2SEMC0kTfXHe-23" value="raiting" style="text;strokeColor=none;fillColor=none;spacingLeft=4;spacingRight=4;overflow=hidden;rotatable=0;points=[[0,0.5],[1,0.5]];portConstraint=eastwest;fontSize=12;whiteSpace=wrap;html=1;" vertex="1" parent="X9ARLeDF2SEMC0kTfXHe-19">
          <mxGeometry y="116" width="160" height="30" as="geometry" />
        </mxCell>
        <mxCell id="X9ARLeDF2SEMC0kTfXHe-25" value="img" style="text;strokeColor=none;fillColor=none;spacingLeft=4;spacingRight=4;overflow=hidden;rotatable=0;points=[[0,0.5],[1,0.5]];portConstraint=eastwest;fontSize=12;whiteSpace=wrap;html=1;" vertex="1" parent="X9ARLeDF2SEMC0kTfXHe-19">
          <mxGeometry y="146" width="160" height="30" as="geometry" />
        </mxCell>
        <mxCell id="X9ARLeDF2SEMC0kTfXHe-26" value="type_id" style="text;strokeColor=none;fillColor=none;spacingLeft=4;spacingRight=4;overflow=hidden;rotatable=0;points=[[0,0.5],[1,0.5]];portConstraint=eastwest;fontSize=12;whiteSpace=wrap;html=1;" vertex="1" parent="X9ARLeDF2SEMC0kTfXHe-19">
          <mxGeometry y="176" width="160" height="30" as="geometry" />
        </mxCell>
        <mxCell id="X9ARLeDF2SEMC0kTfXHe-22" value="brand_id" style="text;strokeColor=none;fillColor=none;spacingLeft=4;spacingRight=4;overflow=hidden;rotatable=0;points=[[0,0.5],[1,0.5]];portConstraint=eastwest;fontSize=12;whiteSpace=wrap;html=1;" vertex="1" parent="X9ARLeDF2SEMC0kTfXHe-19">
          <mxGeometry y="206" width="160" height="30" as="geometry" />
        </mxCell>
        <mxCell id="X9ARLeDF2SEMC0kTfXHe-27" value="type" style="swimlane;fontStyle=0;childLayout=stackLayout;horizontal=1;startSize=26;horizontalStack=0;resizeParent=1;resizeParentMax=0;resizeLast=0;collapsible=1;marginBottom=0;align=center;fontSize=14;" vertex="1" parent="1">
          <mxGeometry x="20" y="421" width="160" height="86" as="geometry" />
        </mxCell>
        <mxCell id="X9ARLeDF2SEMC0kTfXHe-28" value="id" style="text;strokeColor=none;fillColor=none;spacingLeft=4;spacingRight=4;overflow=hidden;rotatable=0;points=[[0,0.5],[1,0.5]];portConstraint=eastwest;fontSize=12;whiteSpace=wrap;html=1;" vertex="1" parent="X9ARLeDF2SEMC0kTfXHe-27">
          <mxGeometry y="26" width="160" height="30" as="geometry" />
        </mxCell>
        <mxCell id="X9ARLeDF2SEMC0kTfXHe-29" value="name" style="text;strokeColor=none;fillColor=none;spacingLeft=4;spacingRight=4;overflow=hidden;rotatable=0;points=[[0,0.5],[1,0.5]];portConstraint=eastwest;fontSize=12;whiteSpace=wrap;html=1;" vertex="1" parent="X9ARLeDF2SEMC0kTfXHe-27">
          <mxGeometry y="56" width="160" height="30" as="geometry" />
        </mxCell>
        <mxCell id="X9ARLeDF2SEMC0kTfXHe-31" value="brand" style="swimlane;fontStyle=0;childLayout=stackLayout;horizontal=1;startSize=26;horizontalStack=0;resizeParent=1;resizeParentMax=0;resizeLast=0;collapsible=1;marginBottom=0;align=center;fontSize=14;" vertex="1" parent="1">
          <mxGeometry x="445" y="421" width="160" height="86" as="geometry" />
        </mxCell>
        <mxCell id="X9ARLeDF2SEMC0kTfXHe-32" value="id" style="text;strokeColor=none;fillColor=none;spacingLeft=4;spacingRight=4;overflow=hidden;rotatable=0;points=[[0,0.5],[1,0.5]];portConstraint=eastwest;fontSize=12;whiteSpace=wrap;html=1;" vertex="1" parent="X9ARLeDF2SEMC0kTfXHe-31">
          <mxGeometry y="26" width="160" height="30" as="geometry" />
        </mxCell>
        <mxCell id="X9ARLeDF2SEMC0kTfXHe-33" value="name" style="text;strokeColor=none;fillColor=none;spacingLeft=4;spacingRight=4;overflow=hidden;rotatable=0;points=[[0,0.5],[1,0.5]];portConstraint=eastwest;fontSize=12;whiteSpace=wrap;html=1;" vertex="1" parent="X9ARLeDF2SEMC0kTfXHe-31">
          <mxGeometry y="56" width="160" height="30" as="geometry" />
        </mxCell>
        <mxCell id="X9ARLeDF2SEMC0kTfXHe-35" value="" style="edgeStyle=entityRelationEdgeStyle;fontSize=12;html=1;endArrow=ERoneToMany;rounded=0;startSize=8;endSize=8;curved=1;exitX=0.5;exitY=0;exitDx=0;exitDy=0;entryX=0;entryY=0.5;entryDx=0;entryDy=0;" edge="1" parent="1" source="X9ARLeDF2SEMC0kTfXHe-27" target="X9ARLeDF2SEMC0kTfXHe-25">
          <mxGeometry width="100" height="100" relative="1" as="geometry">
            <mxPoint x="116" y="368" as="sourcePoint" />
            <mxPoint x="216" y="268" as="targetPoint" />
          </mxGeometry>
        </mxCell>
        <mxCell id="X9ARLeDF2SEMC0kTfXHe-38" value="" style="edgeStyle=entityRelationEdgeStyle;fontSize=12;html=1;endArrow=ERmany;startArrow=ERmany;rounded=0;startSize=8;endSize=8;curved=1;entryX=0;entryY=0.5;entryDx=0;entryDy=0;" edge="1" parent="1" target="X9ARLeDF2SEMC0kTfXHe-32">
          <mxGeometry width="100" height="100" relative="1" as="geometry">
            <mxPoint x="178" y="459" as="sourcePoint" />
            <mxPoint x="278" y="359" as="targetPoint" />
          </mxGeometry>
        </mxCell>
        <mxCell id="X9ARLeDF2SEMC0kTfXHe-39" value="" style="edgeStyle=entityRelationEdgeStyle;fontSize=12;html=1;endArrow=ERoneToMany;rounded=0;startSize=8;endSize=8;curved=1;entryX=1;entryY=0.5;entryDx=0;entryDy=0;exitX=0.5;exitY=0;exitDx=0;exitDy=0;" edge="1" parent="1" source="X9ARLeDF2SEMC0kTfXHe-31" target="X9ARLeDF2SEMC0kTfXHe-22">
          <mxGeometry width="100" height="100" relative="1" as="geometry">
            <mxPoint x="454" y="380" as="sourcePoint" />
            <mxPoint x="452" y="172" as="targetPoint" />
            <Array as="points">
              <mxPoint x="229" y="367" />
              <mxPoint x="499" y="332" />
            </Array>
          </mxGeometry>
        </mxCell>
        <mxCell id="X9ARLeDF2SEMC0kTfXHe-40" value="device_info" style="swimlane;fontStyle=0;childLayout=stackLayout;horizontal=1;startSize=26;horizontalStack=0;resizeParent=1;resizeParentMax=0;resizeLast=0;collapsible=1;marginBottom=0;align=center;fontSize=14;" vertex="1" parent="1">
          <mxGeometry x="518" y="45" width="160" height="146" as="geometry" />
        </mxCell>
        <mxCell id="X9ARLeDF2SEMC0kTfXHe-41" value="id" style="text;strokeColor=none;fillColor=none;spacingLeft=4;spacingRight=4;overflow=hidden;rotatable=0;points=[[0,0.5],[1,0.5]];portConstraint=eastwest;fontSize=12;whiteSpace=wrap;html=1;" vertex="1" parent="X9ARLeDF2SEMC0kTfXHe-40">
          <mxGeometry y="26" width="160" height="30" as="geometry" />
        </mxCell>
        <mxCell id="X9ARLeDF2SEMC0kTfXHe-42" value="device_id" style="text;strokeColor=none;fillColor=none;spacingLeft=4;spacingRight=4;overflow=hidden;rotatable=0;points=[[0,0.5],[1,0.5]];portConstraint=eastwest;fontSize=12;whiteSpace=wrap;html=1;" vertex="1" parent="X9ARLeDF2SEMC0kTfXHe-40">
          <mxGeometry y="56" width="160" height="30" as="geometry" />
        </mxCell>
        <mxCell id="X9ARLeDF2SEMC0kTfXHe-45" value="title" style="text;strokeColor=none;fillColor=none;spacingLeft=4;spacingRight=4;overflow=hidden;rotatable=0;points=[[0,0.5],[1,0.5]];portConstraint=eastwest;fontSize=12;whiteSpace=wrap;html=1;" vertex="1" parent="X9ARLeDF2SEMC0kTfXHe-40">
          <mxGeometry y="86" width="160" height="30" as="geometry" />
        </mxCell>
        <mxCell id="X9ARLeDF2SEMC0kTfXHe-43" value="description" style="text;strokeColor=none;fillColor=none;spacingLeft=4;spacingRight=4;overflow=hidden;rotatable=0;points=[[0,0.5],[1,0.5]];portConstraint=eastwest;fontSize=12;whiteSpace=wrap;html=1;" vertex="1" parent="X9ARLeDF2SEMC0kTfXHe-40">
          <mxGeometry y="116" width="160" height="30" as="geometry" />
        </mxCell>
        <mxCell id="X9ARLeDF2SEMC0kTfXHe-44" value="" style="edgeStyle=entityRelationEdgeStyle;fontSize=12;html=1;endArrow=ERoneToMany;rounded=0;startSize=8;endSize=8;curved=1;exitX=1;exitY=0.5;exitDx=0;exitDy=0;" edge="1" parent="1" source="X9ARLeDF2SEMC0kTfXHe-21" target="X9ARLeDF2SEMC0kTfXHe-42">
          <mxGeometry width="100" height="100" relative="1" as="geometry">
            <mxPoint x="224" y="325" as="sourcePoint" />
            <mxPoint x="324" y="225" as="targetPoint" />
            <Array as="points">
              <mxPoint x="391" y="162" />
            </Array>
          </mxGeometry>
        </mxCell>
        <mxCell id="X9ARLeDF2SEMC0kTfXHe-46" value="basket_device" style="swimlane;fontStyle=0;childLayout=stackLayout;horizontal=1;startSize=26;horizontalStack=0;resizeParent=1;resizeParentMax=0;resizeLast=0;collapsible=1;marginBottom=0;align=center;fontSize=14;" vertex="1" parent="1">
          <mxGeometry x="-153" y="72" width="160" height="116" as="geometry" />
        </mxCell>
        <mxCell id="X9ARLeDF2SEMC0kTfXHe-47" value="id" style="text;strokeColor=none;fillColor=none;spacingLeft=4;spacingRight=4;overflow=hidden;rotatable=0;points=[[0,0.5],[1,0.5]];portConstraint=eastwest;fontSize=12;whiteSpace=wrap;html=1;" vertex="1" parent="X9ARLeDF2SEMC0kTfXHe-46">
          <mxGeometry y="26" width="160" height="30" as="geometry" />
        </mxCell>
        <mxCell id="X9ARLeDF2SEMC0kTfXHe-48" value="device_id" style="text;strokeColor=none;fillColor=none;spacingLeft=4;spacingRight=4;overflow=hidden;rotatable=0;points=[[0,0.5],[1,0.5]];portConstraint=eastwest;fontSize=12;whiteSpace=wrap;html=1;" vertex="1" parent="X9ARLeDF2SEMC0kTfXHe-46">
          <mxGeometry y="56" width="160" height="30" as="geometry" />
        </mxCell>
        <mxCell id="X9ARLeDF2SEMC0kTfXHe-49" value="basket_id" style="text;strokeColor=none;fillColor=none;spacingLeft=4;spacingRight=4;overflow=hidden;rotatable=0;points=[[0,0.5],[1,0.5]];portConstraint=eastwest;fontSize=12;whiteSpace=wrap;html=1;" vertex="1" parent="X9ARLeDF2SEMC0kTfXHe-46">
          <mxGeometry y="86" width="160" height="30" as="geometry" />
        </mxCell>
        <mxCell id="X9ARLeDF2SEMC0kTfXHe-50" value="" style="edgeStyle=entityRelationEdgeStyle;fontSize=12;html=1;endArrow=ERoneToMany;rounded=0;startSize=8;endSize=8;curved=1;entryX=0;entryY=0.5;entryDx=0;entryDy=0;" edge="1" parent="1" target="X9ARLeDF2SEMC0kTfXHe-47">
          <mxGeometry width="100" height="100" relative="1" as="geometry">
            <mxPoint x="-293" y="114" as="sourcePoint" />
            <mxPoint x="-193" y="14" as="targetPoint" />
          </mxGeometry>
        </mxCell>
        <mxCell id="X9ARLeDF2SEMC0kTfXHe-51" value="" style="edgeStyle=entityRelationEdgeStyle;fontSize=12;html=1;endArrow=ERmandOne;startArrow=ERmandOne;rounded=0;startSize=8;endSize=8;curved=1;exitX=1;exitY=0.5;exitDx=0;exitDy=0;" edge="1" parent="1" source="X9ARLeDF2SEMC0kTfXHe-48">
          <mxGeometry width="100" height="100" relative="1" as="geometry">
            <mxPoint x="123" y="246" as="sourcePoint" />
            <mxPoint x="223" y="146" as="targetPoint" />
          </mxGeometry>
        </mxCell>
        <mxCell id="X9ARLeDF2SEMC0kTfXHe-56" value="Rating" style="swimlane;fontStyle=0;childLayout=stackLayout;horizontal=1;startSize=26;horizontalStack=0;resizeParent=1;resizeParentMax=0;resizeLast=0;collapsible=1;marginBottom=0;align=center;fontSize=14;" vertex="1" parent="1">
          <mxGeometry x="-244" y="252" width="160" height="116" as="geometry" />
        </mxCell>
        <mxCell id="X9ARLeDF2SEMC0kTfXHe-57" value="id" style="text;strokeColor=none;fillColor=none;spacingLeft=4;spacingRight=4;overflow=hidden;rotatable=0;points=[[0,0.5],[1,0.5]];portConstraint=eastwest;fontSize=12;whiteSpace=wrap;html=1;" vertex="1" parent="X9ARLeDF2SEMC0kTfXHe-56">
          <mxGeometry y="26" width="160" height="30" as="geometry" />
        </mxCell>
        <mxCell id="X9ARLeDF2SEMC0kTfXHe-58" value="user_id" style="text;strokeColor=none;fillColor=none;spacingLeft=4;spacingRight=4;overflow=hidden;rotatable=0;points=[[0,0.5],[1,0.5]];portConstraint=eastwest;fontSize=12;whiteSpace=wrap;html=1;" vertex="1" parent="X9ARLeDF2SEMC0kTfXHe-56">
          <mxGeometry y="56" width="160" height="30" as="geometry" />
        </mxCell>
        <mxCell id="X9ARLeDF2SEMC0kTfXHe-59" value="device_id" style="text;strokeColor=none;fillColor=none;spacingLeft=4;spacingRight=4;overflow=hidden;rotatable=0;points=[[0,0.5],[1,0.5]];portConstraint=eastwest;fontSize=12;whiteSpace=wrap;html=1;" vertex="1" parent="X9ARLeDF2SEMC0kTfXHe-56">
          <mxGeometry y="86" width="160" height="30" as="geometry" />
        </mxCell>
        <mxCell id="X9ARLeDF2SEMC0kTfXHe-61" value="" style="edgeStyle=entityRelationEdgeStyle;fontSize=12;html=1;endArrow=ERmandOne;startArrow=ERmandOne;rounded=0;startSize=8;endSize=8;curved=1;entryX=0;entryY=0.5;entryDx=0;entryDy=0;" edge="1" parent="1" target="X9ARLeDF2SEMC0kTfXHe-57">
          <mxGeometry width="100" height="100" relative="1" as="geometry">
            <mxPoint x="-530" y="213" as="sourcePoint" />
            <mxPoint x="-430" y="113" as="targetPoint" />
          </mxGeometry>
        </mxCell>
        <mxCell id="X9ARLeDF2SEMC0kTfXHe-62" value="" style="edgeStyle=entityRelationEdgeStyle;fontSize=12;html=1;endArrow=ERmandOne;startArrow=ERmandOne;rounded=0;startSize=8;endSize=8;curved=1;entryX=0;entryY=0.5;entryDx=0;entryDy=0;" edge="1" parent="1" target="X9ARLeDF2SEMC0kTfXHe-23">
          <mxGeometry width="100" height="100" relative="1" as="geometry">
            <mxPoint x="-84" y="305" as="sourcePoint" />
            <mxPoint x="16" y="205" as="targetPoint" />
          </mxGeometry>
        </mxCell>
      </root>
    </mxGraphModel>
  </diagram>
</mxfile>
